<?xml version="1.0" encoding="utf-8"?>
<!-- Generator: Adobe Illustrator 26.0.1, SVG Export Plug-In . SVG Version: 6.00 Build 0)  -->
<svg version="1.1" id="Layer_1" xmlns="http://www.w3.org/2000/svg" xmlns:xlink="http://www.w3.org/1999/xlink" x="0px" y="0px"
	 viewBox="0 0 40 40" style="enable-background:new 0 0 40 40;" xml:space="preserve">
<style type="text/css">
	.st0{fill:#FC7942;}
	.st1{fill:#131313;}
	.st2{font-family:'Rockwell-ExtraBold';}
	.st3{font-size:36.2899px;}
</style>
<path class="st0" d="M5,0h30c2.8,0,5,2.2,5,5v30c0,2.8-2.2,5-5,5H5c-2.8,0-5-2.2-5-5V5C0,2.2,2.2,0,5,0z"/>
<path class="st1" d="M-49.1,11.3c9,0,12.6-4.1,12.6-8.7c0-3.4-1.8-6.8-8.3-7.8l-8.4-1.2c-1.4-0.2-1.9-0.6-1.9-1.4
	c0-1.2,0.8-1.7,4.7-1.7c5,0,5.9,0.6,5.9,2.6v0.6h7.5v-0.2c0-6-4.1-9.7-12.6-9.7c-9.7,0-13,4.5-13,8.8c0,4.3,2.5,7,7.5,7.7l8.4,1.1
	c2.2,0.3,2.7,0.7,2.7,1.6c0,1.2-0.5,1.6-5,1.6c-5,0-5.7-0.5-5.7-2.3V1.4h-7.5v0.2C-62.3,8.4-57.3,11.3-49.1,11.3z"/>
<text transform="matrix(0.96 0 0 1 6.5325 32.3525)" class="st2 st3">B</text>
</svg>
